<svg width="98" height="157" viewBox="0 0 98 157" fill="none" xmlns="http://www.w3.org/2000/svg">
<path d="M34.5611 30.8661C31.312 30.8661 28.7 28.2222 28.7 25.005C28.7 21.7878 31.3439 19.144 34.5611 19.144C37.8101 19.144 40.4221 21.7878 40.4221 25.005C40.4221 28.2222 37.8101 30.8661 34.5611 30.8661ZM34.5611 34.6248C46.2832 34.6248 55.8074 44.149 55.8074 55.8711C55.8074 62.3374 52.9087 68.1029 48.3537 72.0208C46.2832 71.0015 43.9579 70.4282 41.3777 70.4282C40.8362 70.4282 40.2629 70.46 39.8169 70.4919C38.5746 70.5874 34.3063 71.2882 31.1528 75.8751C30.9616 76.1618 30.7705 76.4485 30.6112 76.7352C20.7685 74.8877 13.3148 66.2553 13.3148 55.8711C13.3148 44.149 22.8071 34.6248 34.5611 34.6248ZM27.2666 60.4899C27.3622 62.3055 27.9355 63.7389 29.0504 64.7264C30.229 65.8094 31.7261 66.4465 33.4781 66.6376V68.9948C33.4781 69.3133 33.7329 69.5681 34.0514 69.5681H36.1538C36.4723 69.5681 36.7271 69.3133 36.7271 68.9948V66.5739C38.1605 66.3191 39.3073 65.7457 40.1992 64.8856C41.2503 63.8663 41.7918 62.5285 41.7918 60.8402C41.7918 59.0883 41.2822 57.7186 40.231 56.7948C39.1798 55.8392 37.5553 54.9155 35.3256 53.9599C34.37 53.5458 33.701 53.1317 33.3506 52.7176C33.0003 52.3035 32.8091 51.762 32.8091 51.0931C32.8091 50.4241 32.9684 49.9145 33.2869 49.4685C33.6055 49.0544 34.1151 48.8315 34.8159 48.8315C35.4848 48.8315 36.0263 49.0863 36.4404 49.596C36.759 50.01 36.9501 50.5834 37.0138 51.3479C37.0457 51.6983 37.3642 51.9531 37.6827 51.9213L41.1229 51.8576C41.5052 51.8576 41.8237 51.539 41.7918 51.1568C41.6963 49.6597 41.2185 48.3855 40.3266 47.3662C39.4028 46.315 38.1924 45.6143 36.6953 45.3276V42.7474C36.6953 42.4289 36.4404 42.1741 36.1219 42.1741H34.0196C33.701 42.1741 33.4462 42.4289 33.4462 42.7474V45.2639C31.8535 45.4868 30.5475 46.0921 29.5601 47.0477C28.4771 48.0988 27.9037 49.4367 27.9037 51.0612C27.9037 52.845 28.4134 54.2147 29.4645 55.1385C30.4838 56.0622 32.1402 56.986 34.4018 57.8779C35.3256 58.292 35.9945 58.7061 36.3449 59.1202C36.6953 59.5343 36.8864 60.1395 36.8864 60.8721C36.8864 61.541 36.6953 62.0507 36.3449 62.4648C35.9945 62.8789 35.453 63.07 34.7841 63.07C33.9559 63.07 33.2869 62.8152 32.7773 62.2737C32.3632 61.8596 32.1084 61.1906 32.0128 60.2987C31.9809 59.9483 31.6624 59.6935 31.3439 59.6935L27.9037 59.7572C27.5533 59.7891 27.2666 60.1076 27.2666 60.4899ZM94.0953 86.9601C92.3434 85.5904 74.0276 65.2679 69.1222 62.4011V9.68347C69.1222 4.33208 64.7901 0 59.4387 0H9.68347C4.33208 0 0 4.33208 0 9.68347V101.963C0 107.315 4.33208 111.647 9.68347 111.647H25.6421H31.3439L30.452 104.065C30.1653 103.811 29.9742 103.651 29.6875 103.397H26.5021H20.1314C20.4181 102.218 20.5137 100.976 20.3544 99.7016C19.8447 95.688 16.7868 92.3434 12.8688 91.4515C11.2443 91.0693 9.71533 91.133 8.28192 91.4834V19.5899C9.90645 19.9085 11.6902 19.8129 13.5059 19.1121C15.449 18.3795 17.0735 16.9779 18.2202 15.2578C19.8447 12.7733 20.0996 10.3843 19.7173 8.21821H49.4367C49.0544 10.3524 49.3093 12.6777 50.8701 15.1623C51.985 16.9461 53.6414 18.3476 55.5844 19.0803C57.4319 19.781 59.2157 19.8766 60.8721 19.5581V89.6677V109.799C57.4956 107.315 53.7051 99.5423 53.7051 99.5423C53.7051 99.5423 51.8576 78.8375 41.3777 78.8375C41.0911 78.8375 40.8362 78.8375 40.5495 78.8693C40.5495 78.8693 32.618 79.5383 39.1798 102.25L42.1104 127.446C42.1104 127.446 45.3913 141.143 54.4377 150.604V153.438C54.4377 154.936 55.6481 156.178 57.1771 156.178H86.6735C88.075 156.178 89.2217 155.127 89.381 153.757C90.4322 144.042 94.4457 108.238 96.8347 102.091C97.2807 100.912 97.6948 99.7334 97.8541 98.4911C98.2363 95.3058 98.1407 90.0818 94.0953 86.9601Z" fill="black"/>
</svg>
