<svg width="54" height="54" viewBox="0 0 54 54" fill="none" xmlns="http://www.w3.org/2000/svg">
<path d="M11.166 7.55556H52L46.4444 27H14.1575M49.2222 38.1111H15.8889L10.3333 2H2M18.6667 49.2222C18.6667 50.7564 17.423 52 15.8889 52C14.3548 52 13.1111 50.7564 13.1111 49.2222C13.1111 47.6881 14.3548 46.4444 15.8889 46.4444C17.423 46.4444 18.6667 47.6881 18.6667 49.2222ZM49.2222 49.2222C49.2222 50.7564 47.9786 52 46.4444 52C44.9103 52 43.6667 50.7564 43.6667 49.2222C43.6667 47.6881 44.9103 46.4444 46.4444 46.4444C47.9786 46.4444 49.2222 47.6881 49.2222 49.2222Z" stroke="black" stroke-width="3" stroke-linecap="round" stroke-linejoin="round"/>
</svg>
