<svg width="49" height="52" viewBox="0 0 49 52" fill="none" xmlns="http://www.w3.org/2000/svg">
<path d="M36.9089 38.5782C36.6662 39.0323 36.3343 39.4113 35.913 39.7212C35.4887 40.0282 34.9844 40.2598 34.3957 40.4118C34.1373 40.476 33.8696 40.5229 33.5956 40.5605V42.2735H31.5507V40.5933C30.9698 40.5448 30.4108 40.454 29.8878 40.3099C29.0877 40.0907 28.0401 39.206 28.0401 39.206C27.9493 39.1543 27.8914 39.0619 27.8789 38.9586C27.8663 38.8568 27.9008 38.7535 27.9729 38.6783L28.9984 37.6543C29.1096 37.5446 29.2803 37.5243 29.4134 37.6042C29.4134 37.6042 30.1791 38.2712 30.7615 38.4309C31.3425 38.5875 31.9171 38.6689 32.4933 38.6689C33.2182 38.6689 33.818 38.5405 34.2924 38.2837C34.7684 38.0253 35.0064 37.626 35.0064 37.0812C35.0064 36.6897 34.8905 36.3797 34.6556 36.1511C34.4207 35.9256 34.0246 35.7847 33.4656 35.7221L31.6305 35.5655C30.5454 35.4589 29.7061 35.1552 29.1189 34.6589C28.5285 34.1609 28.2342 33.4046 28.2342 32.3947C28.2342 31.8357 28.3486 31.3378 28.574 30.8994C28.8011 30.4609 29.1111 30.0914 29.5041 29.7907C29.8971 29.4885 30.3543 29.2615 30.8726 29.1112C31.0918 29.0486 31.3188 29.0063 31.5506 28.9687V27.4922H33.5955V28.939C34.0731 28.986 34.5272 29.0627 34.9499 29.177C35.6656 29.3743 36.4202 29.9631 36.4202 29.9631C36.5142 30.0132 36.5784 30.1056 36.594 30.2105C36.6096 30.3154 36.5752 30.4203 36.5016 30.4955L35.5402 31.4726C35.44 31.5759 35.2802 31.6041 35.1503 31.5352C35.1503 31.5352 34.5803 31.1312 34.0886 31.0028C33.5985 30.8744 33.0818 30.8086 32.5385 30.8086C31.8276 30.8086 31.3031 30.9464 30.9649 31.2157C30.625 31.4882 30.456 31.8451 30.456 32.2805C30.456 32.6751 30.575 32.9757 30.8177 33.1855C31.0588 33.3984 31.4659 33.5362 32.039 33.5941L33.6471 33.7319C34.8402 33.8368 35.7421 34.1531 36.3544 34.6808C36.9651 35.21 37.2704 35.9804 37.2704 36.9904C37.2706 37.5948 37.15 38.1242 36.9089 38.5782Z" fill="black"/>
<path d="M32.5732 22.5634C39.3656 22.5634 44.893 28.0907 44.893 34.8832C44.893 41.6756 39.3657 47.2029 32.5732 47.2029C25.7808 47.2029 20.2551 41.6756 20.2551 34.8832C20.2551 28.0907 25.7808 22.5634 32.5732 22.5634ZM32.5732 18.458C23.5011 18.458 16.1496 25.811 16.1496 34.8832C16.1496 43.9553 23.501 51.3083 32.5732 51.3083C41.6439 51.3083 49 43.9553 49 34.8832C49 25.811 41.6438 18.458 32.5732 18.458Z" fill="black"/>
<path d="M13.3156 0C5.96267 0 0.00012207 2.90301 0.00012207 6.48554V9.94913C0.00012207 13.5317 5.96267 16.4347 13.3156 16.4347C20.667 16.4347 26.6295 13.5317 26.6295 9.94913V6.48554C26.6295 2.90301 20.667 0 13.3156 0ZM13.3156 2.69317C19.7996 2.69317 23.9349 5.1828 23.9349 6.48554C23.9349 7.78828 19.7996 10.2779 13.3156 10.2779C6.83009 10.2779 2.69489 7.78828 2.69489 6.48554C2.69489 5.1828 6.83009 2.69317 13.3156 2.69317Z" fill="black"/>
<path d="M13.314 21.6456C15.777 21.6456 18.0849 21.3168 20.0641 20.7499C18.1585 22.4254 16.599 24.4953 15.4982 26.819C14.7904 26.8754 14.0608 26.9098 13.3139 26.9098C5.96254 26.9098 0 24.0021 0 20.4212V16.3501C0 16.2843 0.0501053 16.2248 0.115844 16.2185C0.150316 16.2091 0.181582 16.2248 0.205132 16.2592C0.189499 16.2592 0.205132 16.3062 0.297526 16.5286C1.58624 19.4535 6.92557 21.6456 13.314 21.6456Z" fill="black"/>
<path d="M13.682 34.8823C13.682 35.6809 13.7321 36.4606 13.8401 37.2311C13.6664 37.2405 13.4941 37.2405 13.314 37.2405C5.96266 37.2405 0.00012207 34.3406 0.00012207 30.7612V26.6777C0.00012207 26.6212 0.0502275 26.5649 0.115966 26.5555C0.169178 26.5492 0.205254 26.5806 0.228703 26.6181C0.197337 26.5774 0.164468 26.5555 0.297648 26.8687C1.58626 29.7904 6.92569 31.9857 13.3141 31.9857C13.5114 31.9857 13.7166 31.9857 13.9138 31.9669C13.7556 32.9204 13.682 33.8896 13.682 34.8823Z" fill="black"/>
<path d="M18.2071 47.1273C16.6961 47.4248 15.0458 47.5799 13.314 47.5799C5.96266 47.5799 0.00012207 44.6816 0.00012207 41.0928V37.0186C0.00012207 36.9529 0.0502275 36.9028 0.115966 36.8965C0.166071 36.8871 0.214573 36.9121 0.231809 36.9622C0.197337 36.9215 0.158255 36.8808 0.297548 37.2002C1.58616 40.1314 6.92559 42.3235 13.314 42.3235C13.9451 42.3235 14.5776 42.2984 15.1852 42.2578C15.9415 44.0396 16.967 45.6837 18.2071 47.1273Z" fill="black"/>
</svg>
