<svg width="41" height="43" viewBox="0 0 41 43" fill="none" xmlns="http://www.w3.org/2000/svg">
<path id="Vector" d="M33.1813 24.0992C32.6637 24.0992 32.1672 24.3108 31.8012 24.6876C31.4351 25.0644 31.2295 25.5754 31.2295 26.1083V26.8717L28.3407 23.8983C27.3208 22.8566 25.9422 22.2721 24.5054 22.2721C23.0686 22.2721 21.69 22.8566 20.67 23.8983L19.3037 25.3046L14.4631 20.3221C13.4289 19.3087 12.0557 18.7435 10.6278 18.7435C9.19988 18.7435 7.82665 19.3087 6.79241 20.3221L3.90368 23.2955V12.0446C3.90368 11.5117 4.10932 11.0007 4.47537 10.6239C4.84141 10.2471 5.33787 10.0355 5.85553 10.0355H19.5184C20.0361 10.0355 20.5325 9.8238 20.8986 9.44702C21.2646 9.07024 21.4703 8.55922 21.4703 8.02638C21.4703 7.49353 21.2646 6.98251 20.8986 6.60573C20.5325 6.22895 20.0361 6.01728 19.5184 6.01728H5.85553C4.30254 6.01728 2.81317 6.6523 1.71504 7.78263C0.61692 8.91297 0 10.446 0 12.0446V36.1538C0 37.7523 0.61692 39.2854 1.71504 40.4157C2.81317 41.546 4.30254 42.1811 5.85553 42.1811H29.2776C30.8306 42.1811 32.32 41.546 33.4181 40.4157C34.5162 39.2854 35.1332 37.7523 35.1332 36.1538V26.1083C35.1332 25.5754 34.9275 25.0644 34.5615 24.6876C34.1954 24.3108 33.699 24.0992 33.1813 24.0992ZM5.85553 38.1629C5.33787 38.1629 4.84141 37.9512 4.47537 37.5744C4.10932 37.1976 3.90368 36.6866 3.90368 36.1538V28.9813L9.56403 23.1549C9.85077 22.8736 10.2317 22.7167 10.6278 22.7167C11.0239 22.7167 11.4048 22.8736 11.6915 23.1549L17.8789 29.5237L26.2718 38.1629H5.85553ZM31.2295 36.1538C31.2267 36.5384 31.1035 36.9118 30.8781 37.2186L22.0753 28.1174L23.4416 26.711C23.5816 26.564 23.7486 26.4472 23.9329 26.3675C24.1173 26.2877 24.3152 26.2467 24.5151 26.2467C24.7151 26.2467 24.913 26.2877 25.0974 26.3675C25.2817 26.4472 25.4487 26.564 25.5886 26.711L31.2295 32.5575V36.1538ZM40.4226 6.59992L34.5671 0.57262C34.3815 0.389711 34.1626 0.246331 33.923 0.15071C33.4478 -0.0502365 32.9148 -0.0502365 32.4396 0.15071C32.2 0.246331 31.9811 0.389711 31.7955 0.57262L25.94 6.59992C25.758 6.78724 25.6136 7.00963 25.5151 7.25438C25.4167 7.49914 25.366 7.76146 25.366 8.02638C25.366 8.5614 25.5724 9.07452 25.94 9.45284C26.3075 9.83116 26.806 10.0437 27.3258 10.0437C27.8456 10.0437 28.3441 9.83116 28.7116 9.45284L31.2295 6.84101V18.0719C31.2295 18.6047 31.4351 19.1157 31.8012 19.4925C32.1672 19.8693 32.6637 20.081 33.1813 20.081C33.699 20.081 34.1954 19.8693 34.5615 19.4925C34.9275 19.1157 35.1332 18.6047 35.1332 18.0719V6.84101L37.651 9.45284C37.8325 9.64115 38.0484 9.79061 38.2862 9.89261C38.5241 9.99461 38.7792 10.0471 39.0368 10.0471C39.2945 10.0471 39.5496 9.99461 39.7875 9.89261C40.0253 9.79061 40.2412 9.64115 40.4226 9.45284C40.6056 9.26607 40.7508 9.04386 40.8499 8.79903C40.949 8.5542 41 8.2916 41 8.02638C41 7.76115 40.949 7.49855 40.8499 7.25372C40.7508 7.0089 40.6056 6.78669 40.4226 6.59992Z" fill="#BFBFBF"/>
</svg>
