<svg width="40" height="54" viewBox="0 0 40 54" fill="none" xmlns="http://www.w3.org/2000/svg">
<path d="M25.4956 28.3974L24.5861 29.6511C24.7265 29.7109 24.8632 29.772 24.9975 29.8342C25.1318 29.8965 25.2612 29.9599 25.3882 30.0247C25.5151 30.0895 25.6372 30.1553 25.7568 30.2224C25.8753 30.2895 25.9912 30.3579 26.1036 30.4262C26.2915 30.5447 26.4661 30.6814 26.6211 30.8218C26.7774 30.9622 26.9154 31.1062 27.03 31.2356C27.1448 31.3662 27.2375 31.4822 27.3022 31.5689C27.3682 31.6555 27.406 31.713 27.4121 31.7227L27.4646 31.7887L27.4926 31.8607L27.495 31.9352L27.4755 32.0109L27.4267 32.0805L27.3583 32.1403L27.2753 32.1879L27.18 32.2221L25.388 32.664L25.294 32.6798L25.2 32.6823L25.1097 32.6725L25.0243 32.6505L24.9803 32.6334L24.9375 32.6102L24.8997 32.5858L24.8655 32.5565C24.8594 32.5491 24.8289 32.5089 24.7776 32.4466C24.7275 32.3844 24.6555 32.3026 24.5689 32.211C24.4822 32.1182 24.3797 32.0181 24.2661 31.9205C24.1514 31.8216 24.0281 31.7276 23.895 31.6483C23.7657 31.5689 23.6314 31.492 23.4922 31.4188C23.3531 31.3455 23.2103 31.2735 23.0613 31.2063C22.9136 31.138 22.761 31.072 22.6036 31.0098C22.4461 30.9475 22.285 30.8877 22.1189 30.8303C21.9017 30.7559 21.6917 30.6936 21.4915 30.6435C21.2925 30.5947 21.1009 30.5569 20.9178 30.5312C20.7359 30.5055 20.5638 30.4921 20.3989 30.4909C20.2341 30.4896 20.0791 30.4994 19.9326 30.5226C19.7849 30.5458 19.6482 30.5787 19.52 30.6202C19.3919 30.6617 19.2747 30.713 19.1661 30.7716C19.0574 30.8315 18.9586 30.8998 18.8694 30.9755C18.7815 31.0536 18.7022 31.1391 18.6338 31.233C18.5715 31.3185 18.5227 31.4015 18.4861 31.4833C18.4494 31.5638 18.4275 31.6445 18.4164 31.7226C18.4054 31.8007 18.4079 31.8764 18.4238 31.9509C18.4385 32.0253 18.4665 32.0986 18.508 32.1694C18.5495 32.2414 18.6057 32.3134 18.6789 32.3842C18.751 32.4563 18.8401 32.5283 18.9439 32.6015C19.0476 32.6735 19.1672 32.7455 19.3028 32.8187C19.4382 32.8908 19.5897 32.964 19.7557 33.036L21.6406 33.8295C21.9897 33.9773 22.3096 34.1298 22.5976 34.2861C22.8869 34.4423 23.1445 34.601 23.3715 34.7659C23.5974 34.9295 23.7939 35.0966 23.9599 35.2676C24.1259 35.4397 24.2614 35.6155 24.3652 35.7949C24.4714 35.9744 24.5434 36.1587 24.5825 36.3479C24.6203 36.5384 24.6265 36.7324 24.5983 36.9326C24.5715 37.1328 24.5117 37.3366 24.4176 37.5466C24.3248 37.7566 24.1979 37.9714 24.0392 38.1911C23.9439 38.323 23.8426 38.4474 23.734 38.5634C23.6254 38.6806 23.5131 38.7905 23.391 38.893C23.2714 38.9956 23.1444 39.0908 23.0125 39.1775C22.8795 39.2654 22.7415 39.3459 22.5975 39.418C22.451 39.4937 22.2996 39.5608 22.1458 39.6218C21.9908 39.6816 21.8321 39.7366 21.6697 39.7841C21.5074 39.8317 21.3414 39.8733 21.1704 39.9087C21.0007 39.9441 20.8274 39.9734 20.6492 39.9978C20.4697 40.021 20.2879 40.0369 20.1023 40.0466C19.9168 40.0564 19.7288 40.0601 19.5372 40.0564C19.3443 40.0527 19.1489 40.0442 18.9512 40.0284C18.7522 40.0125 18.5521 39.9917 18.347 39.9624C18.2567 39.949 18.1675 39.9331 18.0784 39.9173C17.9893 39.9026 17.8989 39.8855 17.8098 39.8684C17.7195 39.8502 17.6291 39.8318 17.54 39.8123C17.4497 39.7927 17.3582 39.772 17.2679 39.7513L16.1875 41.243L13.6778 40.3823L14.7374 38.9223C14.5664 38.8503 14.3993 38.7771 14.2357 38.7014C14.0721 38.6257 13.9134 38.5488 13.7572 38.4695C13.6033 38.3901 13.4507 38.3095 13.3043 38.2266C13.1578 38.1436 13.015 38.0593 12.8758 37.9727C12.6647 37.8408 12.4632 37.6699 12.2777 37.488C12.0946 37.3049 11.9286 37.1096 11.787 36.929C11.6454 36.7484 11.5294 36.5823 11.4476 36.4578C11.3646 36.3345 11.3157 36.2503 11.306 36.2356L11.2584 36.1685L11.2352 36.0965L11.2376 36.0232L11.2621 35.9524L11.3085 35.8853L11.3756 35.828L11.4598 35.7816L11.5575 35.751L13.4618 35.2884L13.5521 35.2725L13.6424 35.2712L13.7303 35.281L13.8133 35.3018L13.8682 35.325L13.9183 35.3519L13.9623 35.3836L14.0001 35.4202C14.0062 35.4312 14.0429 35.4935 14.1014 35.5862C14.1625 35.6778 14.2455 35.8011 14.348 35.9354C14.4493 36.0697 14.5702 36.2137 14.7032 36.348C14.8363 36.4834 14.9828 36.6092 15.1366 36.7045C15.288 36.7997 15.4443 36.8912 15.6029 36.9766C15.7604 37.0645 15.9215 37.1463 16.0864 37.2245C16.2512 37.3026 16.4184 37.3759 16.5893 37.4442C16.759 37.5138 16.9324 37.5785 17.1082 37.6395C17.3315 37.7152 17.5513 37.7812 17.7649 37.8373C17.9785 37.8934 18.1872 37.9398 18.3923 37.9752C18.5961 38.0106 18.7976 38.0351 18.9929 38.0509C19.1882 38.0656 19.3799 38.0692 19.5654 38.0644C19.7534 38.0583 19.928 38.0375 20.0904 38.0034C20.2515 37.9691 20.4004 37.9216 20.5372 37.8593C20.6726 37.797 20.796 37.7213 20.907 37.631C21.0193 37.5395 21.117 37.4357 21.2036 37.3173C21.2647 37.2318 21.3135 37.1488 21.3501 37.0658C21.3879 36.984 21.4124 36.9034 21.4246 36.8229C21.4368 36.7435 21.438 36.6654 21.4258 36.5873C21.4136 36.5116 21.3892 36.4359 21.3525 36.3627C21.3159 36.2895 21.2647 36.2149 21.1975 36.1429C21.1292 36.0684 21.045 35.9952 20.9461 35.922C20.8472 35.8487 20.7325 35.7755 20.603 35.7034C20.4711 35.6302 20.3259 35.5582 20.1636 35.4849L18.0114 34.5767C17.6953 34.44 17.4047 34.2984 17.1411 34.1531C16.8786 34.0091 16.6418 33.8589 16.4318 33.7052C16.2218 33.5526 16.0388 33.3951 15.8837 33.234C15.7275 33.0716 15.5981 32.9056 15.4979 32.7359C15.3954 32.5663 15.3246 32.3905 15.2879 32.2073C15.2525 32.0255 15.2489 31.8375 15.2769 31.6422C15.3062 31.4481 15.3685 31.2479 15.4637 31.0404C15.5577 30.8329 15.6859 30.6192 15.8446 30.3995C15.9325 30.2799 16.0264 30.1652 16.1265 30.0565C16.2266 29.9478 16.3329 29.8465 16.4451 29.7501C16.5586 29.6537 16.6771 29.5645 16.8028 29.4815C16.9285 29.3973 17.0604 29.3203 17.2007 29.2495C17.3387 29.1775 17.4803 29.1116 17.6256 29.053C17.7708 28.992 17.9198 28.9382 18.0736 28.8906C18.2274 28.8418 18.3824 28.8003 18.5423 28.7649C18.7035 28.7283 18.867 28.699 19.0343 28.6746C19.2015 28.6514 19.3724 28.6319 19.5433 28.6209C19.7154 28.6074 19.8888 28.6001 20.0658 28.5989C20.2416 28.5977 20.4186 28.6026 20.5981 28.6123C20.7775 28.6234 20.9594 28.6392 21.1425 28.6612C21.2194 28.6709 21.2964 28.6807 21.3732 28.6929C21.4501 28.7051 21.5271 28.7173 21.6028 28.7307C21.6797 28.7441 21.7554 28.7587 21.8323 28.7747C21.9092 28.7894 21.9861 28.8064 22.063 28.8223L22.992 27.543L25.4956 28.3974Z" fill="black"/>
<path d="M20 22C8.95508 22 0 27.6458 0 34.6111V40.7781C0 47.7447 8.95508 53.3892 20 53.3892C31.0449 53.3892 40 47.7447 40 40.7781V34.6111C40 27.6458 31.0449 22 20 22ZM20 24.7051C29.375 24.7051 37.2949 29.2412 37.2949 34.6111C37.2949 39.9798 29.375 44.5159 20 44.5159C10.625 44.5159 2.70508 39.9798 2.70508 34.6111C2.70508 29.2412 10.625 24.7051 20 24.7051Z" fill="black"/>
<path d="M18 10H13V7.5L20.5 0L28 7.5V10H23V20H18V10Z" fill="black"/>
</svg>
