<svg width="46" height="46" viewBox="0 0 46 46" fill="none" xmlns="http://www.w3.org/2000/svg">
<circle cx="23" cy="23" r="23" fill="black" fill-opacity="0.7"/>
<path d="M23.0001 8C20.7408 8 18.9092 9.83156 18.9092 12.0909V16.1818H27.091V12.0909C27.091 9.83156 25.2594 8 23.0001 8Z" fill="#D52D2D"/>
<path d="M18.9092 17.8181V21.909C18.9092 24.1683 20.7407 26 23.0001 26C25.2595 26 27.091 24.1684 27.091 21.909V17.8181H18.9092Z" fill="#D52D2D"/>
<path d="M32 21.9089H29.5455C29.5455 25.5181 26.6092 28.4544 23 28.4544C19.3908 28.4544 16.4545 25.5181 16.4545 21.9089H14C14 26.4552 17.3887 30.2244 21.7727 30.8249V36.2271H18.9091V38.6816H27.0909V36.2271H24.2273V30.8249C28.6113 30.2244 32 26.4552 32 21.9089Z" fill="#D52D2D"/>
</svg>
