<svg width="30" height="20" viewBox="0 0 30 20" fill="none" xmlns="http://www.w3.org/2000/svg">
<path d="M0 15.9999C0 12.9599 6.18664 11.4285 9.28572 11.4285C12.3848 11.4285 18.5714 12.9599 18.5714 15.9999V19.9999H0V15.9999Z" fill="#0A369D"/>
<path d="M14.2856 5C14.2856 7.7625 12.0481 10 9.28564 10C6.52314 10 4.28564 7.7625 4.28564 5C4.28564 2.2375 6.52314 0 9.28564 0C12.0481 0 14.2856 2.2375 14.2856 5Z" fill="#0A369D"/>
<path d="M26.4287 7.85707C26.4287 9.83029 24.8305 11.4285 22.8573 11.4285C20.8841 11.4285 19.2859 9.83029 19.2859 7.85707C19.2859 5.88386 20.8841 4.28564 22.8573 4.28564C24.8305 4.28564 26.4287 5.88386 26.4287 7.85707Z" fill="#0A369D"/>
<path fill-rule="evenodd" clip-rule="evenodd" d="M19.9999 20V16C19.9999 15.026 19.6202 14.2061 19.0852 13.5448C20.4068 13.0869 21.8456 12.8572 22.8571 12.8572C25.241 12.8572 29.9999 14.1334 29.9999 16.6667V20H19.9999Z" fill="#0A369D"/>
</svg>
