<svg width="89" height="89" viewBox="0 0 89 89" fill="none" xmlns="http://www.w3.org/2000/svg">
<path id="Subtract" fill-rule="evenodd" clip-rule="evenodd" d="M44.5 0C19.9233 0 0 19.9233 0 44.5C0 69.0768 19.9233 89 44.5 89C69.0768 89 89 69.0768 89 44.5C89 19.9233 69.0768 0 44.5 0ZM63.2533 36.3464C64.4658 35.1341 64.4658 33.1683 63.2533 31.9558C62.0409 30.7434 60.0754 30.7434 58.8629 31.9558L39.7122 51.1063C39.3082 51.5103 38.6529 51.5103 38.2489 51.1063L30.1372 42.9945C28.9248 41.782 26.959 41.782 25.7465 42.9945C24.5341 44.2069 24.5341 46.1728 25.7465 47.3853L33.8582 55.4971C36.687 58.326 41.2741 58.326 44.103 55.4971L63.2533 36.3464Z" fill="#0E1C36"/>
</svg>
