<svg width="40" height="44" viewBox="0 0 40 44" fill="none" xmlns="http://www.w3.org/2000/svg">
<path fill-rule="evenodd" clip-rule="evenodd" d="M20 4.00211C11.7023 4.00211 4 9.47291 4 18.0095C4 21.1519 4.77684 23.4702 6.16504 25.3241C7.58006 27.2139 9.75492 28.7878 12.8325 30.1975L14.4652 30.9453L13.8974 32.6496C13.0826 35.0953 11.6999 37.3419 10.3031 39.1895C15.1293 37.6725 21.4334 35.326 25.8906 32.3528C30.3102 29.4051 32.7938 27.0849 34.1982 24.9231C35.5516 22.8398 36 20.7529 36 18.0095C36 9.47291 28.2978 4.00211 20 4.00211ZM0 18.0095C0 6.53552 10.2977 0 20 0C29.7022 0 40 6.53552 40 18.0095C40 21.2692 39.4484 24.1849 37.5518 27.1043C35.7062 29.9452 32.6898 32.6276 28.1094 35.683C22.1562 39.6537 13.5318 42.4688 8.59544 43.8793C6.9733 44.3428 5.6811 43.3905 5.12486 42.3985C4.57696 41.4214 4.44174 39.9118 5.48826 38.7432C6.88878 37.1792 8.42406 35.1649 9.45232 32.9916C6.80068 31.5848 4.58652 29.891 2.96378 27.7236C0.9757 25.0686 0 21.8707 0 18.0095Z" fill="white"/>
</svg>
