<svg width="27" height="27" viewBox="0 0 27 27" fill="none" xmlns="http://www.w3.org/2000/svg">
<path d="M13.5 0C6.04385 0 0 6.04385 0 13.5C0 20.9562 6.04385 27 13.5 27C20.9562 27 27 20.9562 27 13.5C27 6.04385 20.9562 0 13.5 0ZM13.5 21.1587C12.6391 21.1587 11.9423 20.4608 11.9423 19.601C11.9423 18.7411 12.6391 18.0433 13.5 18.0433C14.3598 18.0433 15.0577 18.7411 15.0577 19.601C15.0577 20.4608 14.3598 21.1587 13.5 21.1587ZM15.0577 14.4087C15.0577 15.2685 14.3598 15.9663 13.5 15.9663C12.6391 15.9663 11.9423 15.2685 11.9423 14.4087V7.13942C11.9423 6.27854 12.6391 5.58173 13.5 5.58173C14.3598 5.58173 15.0577 6.27854 15.0577 7.13942V14.4087Z" fill="#0A369D"/>
</svg>
