<svg width="54" height="54" viewBox="0 0 54 54" fill="none" xmlns="http://www.w3.org/2000/svg">
<path d="M2 12H52V21.9999L50.2519 23.0487C47.4809 24.7113 44.0191 24.7113 41.2481 23.0487L39.5 21.9999L37.7519 23.0487C34.9809 24.7113 31.5191 24.7113 28.7481 23.0487L27 21.9999L25.2519 23.0487C22.4809 24.7113 19.0191 24.7113 16.2481 23.0487L14.5 21.9999L12.7519 23.0487C9.98087 24.7113 6.51914 24.7113 3.74816 23.0487L2 21.9999V12Z" fill="#2F88FF" stroke="black" stroke-width="3" stroke-linecap="round" stroke-linejoin="round"/>
<path d="M7 25.1111V51.9997H47V24.5" stroke="black" stroke-width="3" stroke-linecap="round" stroke-linejoin="round"/>
<path d="M7.00002 11.7776V2H47V11.9999" stroke="black" stroke-width="3" stroke-linecap="round" stroke-linejoin="round"/>
<path d="M33.25 37H20.75V51.9998H33.25V37Z" fill="#2F88FF" stroke="black" stroke-width="3" stroke-linecap="round" stroke-linejoin="round"/>
</svg>
