<svg width="46" height="46" viewBox="0 0 46 46" fill="none" xmlns="http://www.w3.org/2000/svg">
<circle cx="23" cy="23" r="23" fill="black" fill-opacity="0.7"/>
<path fill-rule="evenodd" clip-rule="evenodd" d="M26.6667 13.8457C26.6667 13.348 26.5325 12.5321 25.7861 12.1564C24.9938 11.7575 24.2561 12.2084 23.8825 12.5441L18.1659 17.7434H16.1111C14.9452 17.7434 14 18.6886 14 19.8545L14 25.3304C14 26.4962 14.9452 27.4415 16.1111 27.4415H18.1695L23.8825 32.576C24.2574 32.9128 24.9947 33.3614 25.786 32.9627C26.5313 32.5873 26.6667 31.7733 26.6667 31.2745V13.8457ZM19.2843 19.5798L24.5556 14.7856V30.3425L19.2797 25.6008C19.0859 25.4266 18.8346 25.3304 18.5741 25.3304H16.1111L16.1111 19.8545H18.5741C18.8368 19.8545 19.09 19.7566 19.2843 19.5798Z" fill="white"/>
<path d="M30.1356 18.3819C29.577 18.2149 28.9888 18.5323 28.8219 19.0909C28.6549 19.6494 28.9723 20.2376 29.5309 20.4046C30.224 20.6118 30.8887 21.4208 30.8887 22.5599C30.8887 23.699 30.224 24.508 29.5309 24.7153C28.9723 24.8822 28.6549 25.4704 28.8219 26.029C28.9888 26.5875 29.577 26.9049 30.1356 26.7379C31.8705 26.2192 32.9999 24.4679 32.9999 22.5599C32.9999 20.6519 31.8705 18.9006 30.1356 18.3819Z" fill="white"/>
</svg>
