<svg width="46" height="46" viewBox="0 0 46 46" fill="none" xmlns="http://www.w3.org/2000/svg">
<circle cx="23" cy="23" r="23" fill="black" fill-opacity="0.7"/>
<path fill-rule="evenodd" clip-rule="evenodd" d="M23.5951 13.8352C23.5951 13.3404 23.4616 12.5291 22.7195 12.1555C21.9316 11.7589 21.1982 12.2072 20.8266 12.541L15.1423 17.7109H13.0992C11.9398 17.7109 11 18.6508 11 19.8101L11 25.255C11 26.4143 11.9398 27.3542 13.0992 27.3542H15.1459L20.8266 32.4598C21.1994 32.7946 21.9326 33.2407 22.7194 32.8442C23.4605 32.471 23.5951 31.6615 23.5951 31.1656V13.8352ZM16.2545 19.537L21.4959 14.7699V30.2388L16.2499 25.5239C16.0572 25.3507 15.8073 25.255 15.5483 25.255H13.0992L13.0992 19.8101H15.5483C15.8094 19.8101 16.0612 19.7127 16.2545 19.537Z" fill="white"/>
<path d="M26.0017 18.6092C26.4116 18.1993 27.0762 18.1993 27.4861 18.6092L29.8927 21.0158L32.2993 18.6092C32.7092 18.1993 33.3738 18.1993 33.7836 18.6092C34.1935 19.0191 34.1935 19.6836 33.7836 20.0935L31.377 22.5001L33.7836 24.9068C34.1935 25.3166 34.1935 25.9812 33.7836 26.3911C33.3738 26.801 32.7092 26.801 32.2993 26.3911L29.8927 23.9845L27.4861 26.3911C27.0762 26.801 26.4116 26.801 26.0017 26.3911C25.5919 25.9812 25.5919 25.3166 26.0017 24.9068L28.4084 22.5001L26.0017 20.0935C25.5919 19.6836 25.5919 19.0191 26.0017 18.6092Z" fill="white"/>
</svg>
