<svg width="35" height="35" viewBox="0 0 35 35" fill="none" xmlns="http://www.w3.org/2000/svg">
<path d="M2.73563 0.465805L17.5 15.2306L32.2644 0.465805C32.8377 -0.107493 33.7398 -0.151591 34.3636 0.333508L34.5342 0.486541C35.1553 1.10761 35.1553 2.11457 34.5342 2.73565L19.7694 17.5L34.5342 32.2644C35.1075 32.8376 35.1516 33.7397 34.6665 34.3636L34.5134 34.5342C33.8923 35.1553 32.8854 35.1553 32.2644 34.5342L17.5 19.7694L2.73563 34.5342C2.16234 35.1075 1.26024 35.1516 0.636354 34.6665L0.465806 34.5135C-0.155267 33.8924 -0.155267 32.8854 0.465806 32.2644L15.2306 17.5L0.465806 2.73565C-0.107491 2.16235 -0.151595 1.26025 0.333503 0.636365L0.486579 0.465805C1.10765 -0.155268 2.11456 -0.155268 2.73563 0.465805ZM1.59033 1.61109L17.4797 17.5L1.59033 33.3889L1.61111 33.4096L17.5 17.5203L33.3889 33.4096L33.4097 33.3889L17.5203 17.5L33.4097 1.61109L33.3889 1.59036L17.5 17.4797L1.61111 1.59036L1.59033 1.61109Z" fill="white"/>
</svg>
