<svg width="60" height="40" viewBox="0 0 60 40" fill="none" xmlns="http://www.w3.org/2000/svg">
<path id="Vector" d="M56.3637 0C54.3586 0 52.7273 1.63125 52.7273 3.63633C52.7273 4.63887 53.1352 5.54801 53.7935 6.20637L42.7274 17.2727L32.074 6.61934C33.0171 5.96168 33.6366 4.87078 33.6366 3.63644C33.6366 1.63137 32.0053 0.000117123 30.0002 0.000117123C27.9952 0.000117123 26.3639 1.63137 26.3639 3.63644C26.3639 4.87078 26.9834 5.96168 27.9265 6.61934L17.2731 17.2727L6.20695 6.20637C6.86531 5.54801 7.27312 4.63887 7.27312 3.63633C7.27312 1.63125 5.64188 0 3.6368 0C1.63172 0 0 1.63125 0 3.63633C0 5.32711 1.16145 6.74777 2.7273 7.15301V39.0908H57.2728V7.15312C58.8386 6.74777 60 5.32711 60 3.63633C60 1.63125 58.3688 0 56.3637 0Z" fill="black"/>
</svg>
