<svg width="27" height="27" viewBox="0 0 27 27" fill="none" xmlns="http://www.w3.org/2000/svg">
<path d="M13.3253 0C6.15444 0 0.303723 5.66229 0.00149993 12.7584C-0.0191541 13.2451 0.352483 13.2722 0.352483 13.2722H2.61532C3.05516 13.2722 3.13224 13.0212 3.14263 12.7964C3.39178 7.41551 7.87591 3.14003 13.3253 3.14003C16.2342 3.14003 18.8578 4.35928 20.7154 6.31383L19.1275 7.84926C18.8513 8.18183 18.8564 8.58559 19.2642 8.69965L25.9363 10.0427C26.5073 10.1853 27.186 9.7526 26.9529 8.86417L25.3769 2.72074C25.3369 2.48817 24.947 2.12617 24.583 2.38582L22.8525 4.00646C20.4318 1.53446 17.0579 0 13.3253 0ZM24.3847 13.7278C23.9448 13.7278 23.8678 13.9788 23.8574 14.2036C23.6082 19.5845 19.1241 23.8599 13.6747 23.8599C10.7658 23.8599 8.14222 22.6415 6.2846 20.687L7.87248 19.1507C8.14865 18.8182 8.14362 18.4144 7.73578 18.3003L1.06374 16.9573C0.492714 16.8147 -0.185979 17.2474 0.0470737 18.1358L1.62312 24.2793C1.66313 24.5118 2.05305 24.8738 2.41704 24.6142L4.1475 22.9935C6.56817 25.4655 9.94214 27 13.6747 27C20.8456 27 26.6963 21.3377 26.9985 14.2416C27.0192 13.7549 26.6475 13.7278 26.6475 13.7278L24.3847 13.7278Z" fill="black"/>
</svg>
