<svg width="94" height="42" viewBox="0 0 94 42" fill="none" xmlns="http://www.w3.org/2000/svg">
<path d="M8.0858 33.9486V10.6759H17.2676C18.9722 10.6759 20.3926 10.9335 21.529 11.4486C22.6654 11.9638 23.5176 12.6721 24.0858 13.5736C24.654 14.4751 24.9381 15.5054 24.9381 16.6645C24.9381 17.5888 24.7563 18.3918 24.3926 19.0736C24.029 19.7479 23.5328 20.3009 22.904 20.7327C22.2752 21.1645 21.5669 21.4713 20.779 21.6532V21.8804C21.6426 21.9183 22.4608 22.1683 23.2335 22.6304C24.0063 23.0925 24.635 23.7403 25.1199 24.5736C25.6047 25.3994 25.8472 26.3918 25.8472 27.5509C25.8472 28.7706 25.5441 29.8653 24.9381 30.835C24.3396 31.7971 23.4494 32.5585 22.2676 33.1191C21.0858 33.6721 19.6161 33.9486 17.8585 33.9486H8.0858ZM12.779 30.085H16.9608C18.3775 30.085 19.4078 29.8122 20.0517 29.2668C20.7032 28.7213 21.029 28.0016 21.029 27.1077C21.029 26.4486 20.8661 25.8653 20.5403 25.3577C20.2222 24.8425 19.7676 24.4372 19.1767 24.1418C18.5858 23.8463 17.8813 23.6986 17.0631 23.6986H12.779V30.085ZM12.779 20.46H16.5972C17.2866 20.46 17.904 20.3388 18.4494 20.0963C18.9949 19.8463 19.4229 19.4941 19.7335 19.0395C20.0517 18.5774 20.2108 18.0282 20.2108 17.3918C20.2108 16.5357 19.9078 15.8388 19.3017 15.3009C18.6957 14.763 17.8244 14.4941 16.6881 14.4941H12.779V20.46Z" fill="white"/>
<path d="M34.779 10.6759V33.9486H30.0858V10.6759H34.779Z" fill="white"/>
<path d="M41.0858 33.9486V10.6759H50.2676C51.9722 10.6759 53.3926 10.9335 54.529 11.4486C55.6654 11.9638 56.5176 12.6721 57.0858 13.5736C57.654 14.4751 57.9381 15.5054 57.9381 16.6645C57.9381 17.5888 57.7563 18.3918 57.3926 19.0736C57.029 19.7479 56.5328 20.3009 55.904 20.7327C55.2752 21.1645 54.5669 21.4713 53.779 21.6532V21.8804C54.6426 21.9183 55.4608 22.1683 56.2335 22.6304C57.0063 23.0925 57.635 23.7403 58.1199 24.5736C58.6047 25.3994 58.8472 26.3918 58.8472 27.5509C58.8472 28.7706 58.5441 29.8653 57.9381 30.835C57.3396 31.7971 56.4494 32.5585 55.2676 33.1191C54.0858 33.6721 52.6161 33.9486 50.8585 33.9486H41.0858ZM45.779 30.085H49.9608C51.3775 30.085 52.4078 29.8122 53.0517 29.2668C53.7032 28.7213 54.029 28.0016 54.029 27.1077C54.029 26.4486 53.8661 25.8653 53.5403 25.3577C53.2222 24.8425 52.7676 24.4372 52.1767 24.1418C51.5858 23.8463 50.8813 23.6986 50.0631 23.6986H45.779V30.085ZM45.779 20.46H49.5972C50.2866 20.46 50.904 20.3388 51.4494 20.0963C51.9949 19.8463 52.4229 19.4941 52.7335 19.0395C53.0517 18.5774 53.2108 18.0282 53.2108 17.3918C53.2108 16.5357 52.9078 15.8388 52.3017 15.3009C51.6957 14.763 50.8244 14.4941 49.6881 14.4941H45.779V20.46Z" fill="white"/>
<path d="M67.779 10.6759V33.9486H63.0858V10.6759H67.779Z" fill="white"/>
<path d="M80.2108 33.9486H72.0858V10.6759H80.3131C82.6464 10.6759 84.654 11.1418 86.3358 12.0736C88.0176 12.9978 89.3093 14.3274 90.2108 16.0622C91.1199 17.7971 91.5744 19.8729 91.5744 22.2895C91.5744 24.7138 91.1199 26.7971 90.2108 28.5395C89.3017 30.2819 87.9987 31.6191 86.3017 32.5509C84.6047 33.4827 82.5744 33.9486 80.2108 33.9486ZM76.779 29.9145H80.0063C81.5214 29.9145 82.7904 29.6418 83.8131 29.0963C84.8358 28.5509 85.6047 27.7175 86.1199 26.5963C86.6426 25.4751 86.904 24.0395 86.904 22.2895C86.904 20.5471 86.6426 19.1191 86.1199 18.0054C85.6047 16.8842 84.8396 16.0547 83.8244 15.5168C82.8093 14.9789 81.5555 14.71 80.0631 14.71H76.779V29.9145Z" fill="white"/>
<path d="M7.54956 9.26229L3.28756 7.88463L4.11344 11.5821L7.54956 9.26229Z" fill="#F4900C"/>
<path d="M6.30744 4.92101L6.86273 10.1063L10.9089 7.37456L6.30744 4.92101Z" fill="#F4900C"/>
<path d="M9.90836 7.66978L10.2237 3.20177L13.3445 5.34993L9.90836 7.66978Z" fill="#F4900C"/>
<path d="M11.6255 5.66457L7.72297 3.06312L8.33876 7.88398L8.33723 7.88637L8.33424 7.88659L4.09304 5.51337L5.04733 10.1057C3.17433 9.4148 1.69418 9.1615 1.69418 9.1615C1.69418 9.1615 4.86937 12.7212 7.41899 16.4976L16.6675 10.2537C14.1178 6.4772 12.0031 2.20155 12.0031 2.20155C12.0031 2.20155 11.6848 3.66909 11.6255 5.66457Z" fill="#FFCC4D"/>
<path d="M10.5086 11.1301C11.1365 10.7061 11.3018 9.85346 10.8779 9.22554C10.454 8.59762 9.60129 8.43226 8.97337 8.85619C8.34545 9.28012 8.18009 10.1328 8.60402 10.7607C9.02795 11.3886 9.88064 11.554 10.5086 11.1301Z" fill="#5C913B"/>
<path d="M12.8653 8.96622C13.276 8.68896 13.3841 8.13129 13.1068 7.72063C12.8296 7.30996 12.2719 7.20181 11.8613 7.47906C11.4506 7.75632 11.3424 8.31399 11.6197 8.72466C11.8969 9.13532 12.4546 9.24348 12.8653 8.96622Z" fill="#981CEB"/>
<path d="M14.7456 7.50512C15.0837 7.27683 15.1728 6.81765 14.9445 6.47952C14.7162 6.14138 14.257 6.05233 13.9189 6.28062C13.5808 6.50891 13.4917 6.96808 13.72 7.30622C13.9483 7.64436 14.4075 7.7334 14.7456 7.50512Z" fill="#DD2E44"/>
<path d="M7.61968 12.5077C8.03035 12.2305 8.1385 11.6728 7.86124 11.2621C7.58399 10.8515 7.02631 10.7433 6.61565 11.0206C6.20498 11.2978 6.09683 11.8555 6.37409 12.2662C6.65134 12.6768 7.20901 12.785 7.61968 12.5077Z" fill="#981CEB"/>
<path d="M5.56102 13.706C5.89916 13.4778 5.98821 13.0186 5.75992 12.6804C5.53163 12.3423 5.07246 12.2533 4.73432 12.4815C4.39618 12.7098 4.30713 13.169 4.53542 13.5071C4.76371 13.8453 5.22289 13.9343 5.56102 13.706Z" fill="#DD2E44"/>
<path d="M16.8753 10.5619L7.62686 16.8059C7.54509 16.8611 7.44475 16.8815 7.34791 16.8627C7.25106 16.844 7.16564 16.7875 7.11044 16.7057C7.05524 16.6239 7.03478 16.5236 7.05356 16.4268C7.07234 16.3299 7.12883 16.2445 7.21059 16.1893L16.4591 9.94532C16.5408 9.89012 16.6412 9.86966 16.738 9.88844C16.8349 9.90722 16.9203 9.96371 16.9755 10.0455C17.0307 10.1272 17.0511 10.2276 17.0324 10.3244C17.0136 10.4213 16.9571 10.5067 16.8753 10.5619ZM16.1498 9.48721L6.90131 15.7312C6.81954 15.7864 6.7192 15.8068 6.62236 15.7881C6.52551 15.7693 6.44009 15.7128 6.38489 15.631C6.32969 15.5493 6.30923 15.4489 6.32801 15.3521C6.34679 15.2552 6.40328 15.1698 6.48504 15.1146L15.7335 8.87065C15.8153 8.81545 15.9156 8.79499 16.0125 8.81377C16.1093 8.83255 16.1947 8.88904 16.2499 8.9708C16.3051 9.05256 16.3256 9.1529 16.3068 9.24975C16.288 9.34659 16.2315 9.43201 16.1498 9.48721Z" fill="#FFAC33"/>
<path d="M2.03848 9.56026C2.27804 9.39853 2.34113 9.07322 2.17939 8.83366C2.01766 8.59411 1.69235 8.53102 1.4528 8.69275C1.21324 8.85449 1.15015 9.17979 1.31189 9.41935C1.47362 9.6589 1.79893 9.72199 2.03848 9.56026Z" fill="#FFCC4D"/>
<path d="M3.53554 8.25199C3.73849 8.11497 3.79193 7.83937 3.65491 7.63642C3.5179 7.43347 3.2423 7.38002 3.03935 7.51704C2.8364 7.65406 2.78295 7.92966 2.91997 8.13261C3.05699 8.33556 3.33259 8.38901 3.53554 8.25199Z" fill="#F4900C"/>
<path d="M4.46447 6.06336C4.76821 5.85829 4.8482 5.44582 4.64314 5.14208C4.43807 4.83833 4.02559 4.75834 3.72185 4.96341C3.41811 5.16848 3.33812 5.58095 3.54318 5.88469C3.74825 6.18844 4.16072 6.26843 4.46447 6.06336Z" fill="#FFCC4D"/>
<path d="M12.2445 2.66964C12.4841 2.5079 12.5472 2.1826 12.3854 1.94304C12.2237 1.70348 11.8984 1.6404 11.6589 1.80213C11.4193 1.96386 11.3562 2.28917 11.5179 2.52872C11.6797 2.76828 12.005 2.83137 12.2445 2.66964Z" fill="#FFCC4D"/>
<path d="M10.4716 3.56925C10.6745 3.43223 10.728 3.15663 10.5909 2.95368C10.4539 2.75073 10.1783 2.69729 9.97538 2.8343C9.77243 2.97132 9.71899 3.24692 9.856 3.44987C9.99302 3.65282 10.2686 3.70627 10.4716 3.56925Z" fill="#F4900C"/>
<path d="M8.09386 3.61317C8.39761 3.4081 8.4776 2.99562 8.27253 2.69188C8.06746 2.38814 7.65499 2.30815 7.35125 2.51321C7.0475 2.71828 6.96751 3.13075 7.17258 3.4345C7.37765 3.73824 7.79012 3.81823 8.09386 3.61317Z" fill="#FFCC4D"/>
<path d="M6.67834 5.47144C6.98208 5.26637 7.06207 4.8539 6.857 4.55016C6.65194 4.24641 6.23946 4.16642 5.93572 4.37149C5.63198 4.57656 5.55198 4.98903 5.75705 5.29277C5.96212 5.59652 6.37459 5.67651 6.67834 5.47144Z" fill="#F4900C"/>
</svg>
