<svg width="22" height="21" viewBox="0 0 22 21" fill="none" xmlns="http://www.w3.org/2000/svg">
<path d="M1.83333 3.66666C2.84585 3.66666 3.66666 2.84585 3.66666 1.83333C3.66666 0.820809 2.84585 0 1.83333 0C0.820809 0 0 0.820809 0 1.83333C0 2.84585 0.820809 3.66666 1.83333 3.66666Z" fill="black"/>
<path d="M1.83333 9.16666C2.84585 9.16666 3.66666 8.34585 3.66666 7.33333C3.66666 6.32081 2.84585 5.5 1.83333 5.5C0.820809 5.5 0 6.32081 0 7.33333C0 8.34585 0.820809 9.16666 1.83333 9.16666Z" fill="black"/>
<path d="M1.83333 20.1667C2.84585 20.1667 3.66666 19.3458 3.66666 18.3333C3.66666 17.3208 2.84585 16.5 1.83333 16.5C0.820809 16.5 0 17.3208 0 18.3333C0 19.3458 0.820809 20.1667 1.83333 20.1667Z" fill="black"/>
<path d="M1.83333 14.6667C2.84585 14.6667 3.66666 13.8458 3.66666 12.8333C3.66666 11.8208 2.84585 11 1.83333 11C0.820809 11 0 11.8208 0 12.8333C0 13.8458 0.820809 14.6667 1.83333 14.6667Z" fill="black"/>
<path d="M21.0852 2.74935H7.33158C6.82741 2.74935 6.41675 2.33685 6.41675 1.83451V1.83085C6.41675 1.32668 6.82925 0.916016 7.33158 0.916016H21.0834C21.5875 0.916016 22 1.32851 22 1.83085V1.83268C22 2.33685 21.5876 2.74935 21.0852 2.74935ZM21.0852 8.24933H7.33158C6.82741 8.24933 6.41675 7.83683 6.41675 7.3345V7.33084C6.41675 6.82667 6.82925 6.416 7.33158 6.416H21.0834C21.5875 6.416 22 6.8285 22 7.33084V7.33267C22 7.83683 21.5876 8.24933 21.0852 8.24933ZM21.0852 13.7493H7.33158C6.82741 13.7493 6.41675 13.3368 6.41675 12.8345V12.8327C6.41675 12.3285 6.82925 11.916 7.33158 11.916H21.0834C21.5875 11.916 22 12.3285 22 12.8308V12.8327C22 13.3368 21.5876 13.7493 21.0852 13.7493ZM21.0852 19.2493H7.33158C6.82741 19.2493 6.41675 18.8368 6.41675 18.3345V18.3326C6.41675 17.8285 6.82925 17.416 7.33158 17.416H21.0834C21.5875 17.416 22 17.8285 22 18.3308V18.3326C22 18.8368 21.5876 19.2493 21.0852 19.2493Z" fill="black"/>
</svg>
