<svg width="121" height="121" viewBox="0 0 121 121" fill="none" xmlns="http://www.w3.org/2000/svg">
<path d="M22.2232 13.656C45.9846 -5.81903 81.1006 -4.46383 103.283 17.7216C126.906 41.3469 126.906 79.6557 103.283 103.281C79.6609 126.906 41.357 126.906 17.7346 103.281C10.4854 96.0407 5.19495 87.0766 2.36017 77.2303C-0.474603 67.3841 -0.760737 56.9788 1.52864 46.9916L1.99444 45.0979L13.6937 48.1835C10.7934 59.2082 11.8771 70.903 16.7539 81.2068C21.6307 91.5106 29.9876 99.7622 40.3518 104.507C50.716 109.252 62.4222 110.186 73.4075 107.144C84.3927 104.103 93.9519 97.2805 100.4 87.8802C106.849 78.4799 109.773 67.1048 108.656 55.7596C107.54 44.4145 102.456 33.8275 94.2993 25.8643C86.1427 17.9012 75.4373 13.0732 64.07 12.231C52.7026 11.3888 41.4029 14.5866 32.1621 21.2609L30.8252 22.2652L36.9773 28.418L9.17491 34.8311L15.5871 7.02516L22.2232 13.656ZM66.5582 24.2012V36.3012H81.6813V48.4013H48.4104C47.6546 48.3999 46.9256 48.6816 46.3671 49.1908C45.8085 49.7001 45.4609 50.4001 45.3926 51.1529C45.3243 51.9058 45.5403 52.6569 45.9981 53.2584C46.4559 53.8599 47.1222 54.2682 47.866 54.4029L48.4104 54.4513H72.6074C76.6183 54.4513 80.465 56.0448 83.3011 58.8813C86.1373 61.7178 87.7306 65.5649 87.7306 69.5763C87.7306 73.5877 86.1373 77.4349 83.3011 80.2714C80.465 83.1079 76.6183 84.7014 72.6074 84.7014H66.5582V96.8014H54.4597V84.7014H39.3365V72.6013H72.6074C73.3633 72.6027 74.0922 72.3211 74.6508 71.8118C75.2093 71.3025 75.557 70.6025 75.6253 69.8497C75.6936 69.0968 75.4775 68.3457 75.0198 67.7442C74.562 67.1427 73.8956 66.7344 73.1519 66.5997L72.6074 66.5513H48.4104C44.3995 66.5513 40.5529 64.9578 37.7167 62.1213C34.8806 59.2848 33.2873 55.4377 33.2873 51.4263C33.2873 47.4149 34.8806 43.5677 37.7167 40.7312C40.5529 37.8947 44.3995 36.3012 48.4104 36.3012H54.4597V24.2012H66.5582Z" fill="black"/>
</svg>
