<svg width="40" height="42" viewBox="0 0 40 42" fill="none" xmlns="http://www.w3.org/2000/svg">
<path d="M10.8698 0C4.86605 0 0 2.36979 0 5.2943V8.1217C0 11.0461 4.86605 13.4159 10.8698 13.4159C16.8708 13.4159 21.7382 11.0461 21.7382 8.12162V5.2943C21.7382 2.36979 16.8708 0 10.8698 0ZM10.8698 2.19849C16.1615 2.19849 19.5385 4.23084 19.5385 5.2943C19.5385 6.35776 16.1615 8.3901 10.8698 8.3901C5.57546 8.3901 2.1998 6.35776 2.1998 5.2943C2.1998 4.23084 5.57546 2.19849 10.8698 2.19849Z" fill="white"/>
<path d="M10.8684 17.6698C12.879 17.6698 14.7618 17.4014 16.3775 16.9386C14.8219 18.3063 13.5489 19.9961 12.6515 21.8929C12.0738 21.9402 11.4781 21.967 10.8684 21.967C4.86736 21.967 0 19.5934 0 16.6702V13.3469C0 13.2932 0.0409022 13.2447 0.0945659 13.2395C0.120171 13.2318 0.14823 13.2447 0.167454 13.2727C0.154692 13.2727 0.167454 13.3111 0.241568 13.4926C1.29349 15.8803 5.65088 17.6698 10.8684 17.6698Z" fill="white"/>
<path d="M11.1688 28.4757C11.1688 29.1276 11.2097 29.7641 11.2954 30.393C11.1561 30.4007 11.0141 30.4007 10.8684 30.4007C4.86736 30.4007 0 28.0335 0 25.1116V21.7793C0 21.7321 0.0409022 21.686 0.0945659 21.6784C0.138004 21.6732 0.166145 21.6988 0.186596 21.7295C0.160991 21.6963 0.134159 21.6784 0.241568 21.934C1.29349 24.3191 5.65088 26.1112 10.8684 26.1112C11.0295 26.1112 11.197 26.1112 11.3567 26.0958C11.2289 26.8741 11.1688 27.6653 11.1688 28.4757Z" fill="white"/>
<path d="M14.8628 38.4712C13.6293 38.714 12.2821 38.8406 10.8684 38.8406C4.86736 38.8406 0 36.4747 0 33.5451V30.2192C0 30.1656 0.0409022 30.1247 0.0945659 30.1195C0.135468 30.1118 0.173834 30.1323 0.187905 30.1732C0.161073 30.14 0.12786 30.1067 0.241568 30.3675C1.29349 32.7602 5.65088 34.5497 10.8684 34.5497C11.3836 34.5497 11.8999 34.5293 12.3959 34.4961C13.012 35.9506 13.8505 37.2927 14.8628 38.4712Z" fill="white"/>
<path d="M30.7891 27.6102H27.8952L27.5858 28.092V29.2501H30.7891V29.2552V30.6586V30.8938H27.5858V33.3761H25.5957V30.8938H22.3926V30.6586V29.2552V29.2501H25.5957V28.0946L25.2851 27.6102H22.3926V26.2055H24.3815L22.6904 23.575H24.3763L26.5902 27.0183L28.804 23.575H30.4912L28.8002 26.2055H30.7891V27.6102Z" fill="white"/>
<path d="M26.5904 18.4187C32.1351 18.4187 36.6472 22.9307 36.6472 28.4756C36.6472 34.0205 32.1352 38.5325 26.5904 38.5325C21.0468 38.5325 16.5348 34.0205 16.5348 28.4756C16.5348 22.9307 21.0468 18.4187 26.5904 18.4187ZM26.5904 15.0674C19.1845 15.0674 13.1833 21.0711 13.1833 28.4756C13.1833 35.8814 19.1844 41.8838 26.5904 41.8838C33.9963 41.8838 39.9999 35.8814 39.9999 28.4756C39.9998 21.071 33.9962 15.0674 26.5904 15.0674Z" fill="white"/>
</svg>
