<svg width="45" height="45" viewBox="0 0 45 45" fill="none" xmlns="http://www.w3.org/2000/svg">
<path fill-rule="evenodd" clip-rule="evenodd" d="M45 22.5C45 34.9265 34.9265 45 22.5 45C10.0736 45 0 34.9265 0 22.5C0 10.0736 10.0736 0 22.5 0C34.9265 0 45 10.0736 45 22.5ZM25.3125 14.0625C25.3125 15.6158 24.0533 16.875 22.5 16.875C20.9467 16.875 19.6875 15.6158 19.6875 14.0625C19.6875 12.5092 20.9467 11.25 22.5 11.25C24.0533 11.25 25.3125 12.5092 25.3125 14.0625ZM22.5 19.6875C20.9467 19.6875 19.6875 20.9467 19.6875 22.5V30.9375C19.6875 32.4908 20.9467 33.75 22.5 33.75C24.0533 33.75 25.3125 32.4908 25.3125 30.9375V22.5C25.3125 20.9467 24.0533 19.6875 22.5 19.6875Z" fill="white"/>
</svg>
