<svg width="45" height="40" viewBox="0 0 45 40" fill="none" xmlns="http://www.w3.org/2000/svg">
<path d="M25.3812 0.16686C24.908 -0.0792785 24.3346 -0.052246 23.8889 0.242266L9.32271 11.4508L4.4857 11.4536C2.01203 11.4536 0 13.1724 0 15.2951L0.0769393 24.6825C0.0769393 26.7967 2.08897 28.5169 4.56119 28.5169L9.39675 28.5197L23.886 39.7567C24.1299 39.9175 24.413 40 24.6975 40C24.9312 40 25.1664 39.9445 25.3783 39.8335C25.853 39.5874 26.1506 39.1051 26.1506 38.5772V1.42174C26.1506 0.896738 25.8545 0.414421 25.3812 0.16686ZM23.2487 35.9024L10.6554 25.9203C10.4158 25.7624 10.1327 25.677 9.84386 25.677L4.56409 25.6742C3.63211 25.6742 2.98176 25.1535 2.98176 24.6754L2.90337 15.288C2.90337 14.8213 3.55372 14.302 4.4857 14.302L9.76692 14.2992C10.0558 14.2992 10.3374 14.2152 10.577 14.0559L23.2487 4.09654V35.9024ZM39.8298 20.0244L44.5754 15.3179C45.1415 14.763 45.1415 13.861 44.5754 13.3061C44.0092 12.7512 43.0903 12.7512 42.5227 13.3061L37.7888 17.9998L33.0548 13.3061C32.4887 12.7512 31.5698 12.7512 31.0021 13.3061C30.4345 13.861 30.436 14.763 31.0021 15.3179L35.7462 20.0244L31.0457 24.6854C30.4795 25.2402 30.4795 26.1423 31.0457 26.6971C31.6119 27.252 32.5322 27.252 33.0998 26.6971L37.7873 22.049L42.4748 26.6971C43.041 27.252 43.9599 27.252 44.5275 26.6971C45.0951 26.1423 45.0936 25.2402 44.5275 24.6854L39.8298 20.0244Z" fill="white"/>
</svg>
