<svg width="37" height="40" viewBox="0 0 37 40" fill="none" xmlns="http://www.w3.org/2000/svg">
<path fill-rule="evenodd" clip-rule="evenodd" d="M24 3.39461C24 2.47187 24.1669 0.894689 22.8013 0.197986C21.3516 -0.541619 19.9891 0.983985 19.3054 1.60645L9.21558 11.6597L5 11.698C1 11.698 0 13.698 0 16.198L0.102554 24.2566C0 28.198 3.10072 28.698 5.23397 28.698H9L19.3054 38.7492C19.9914 39.3735 21.3536 40.4958 22.8013 39.7566C24.165 39.0606 24 37.0851 24 36.1604V3.39461ZM10.515 14.2745L21.2029 3.39461L21.2029 36.8395L10.9061 26.0718C10.5516 25.7489 10.0918 25.5704 9.61516 25.5704H3.00001L3.00001 20.198L3 14.698L9.21558 14.7838C9.69619 14.7838 10.1595 14.6022 10.515 14.2745Z" fill="white"/>
<path d="M30.9706 11.8417C30.1433 11.6067 29.1991 11.5219 28.9727 12.2413C28.6102 13.3934 30.3343 14.0172 31.3701 14.6387C33.3681 15.8375 33.7676 17.4357 33.7676 19.4336C33.7677 21.4317 32.5689 23.4295 30.571 24.2288C29.5138 24.529 28.6566 25.2222 28.9727 26.2266C29.2887 27.2308 30.313 26.9264 31.3702 26.6262C34.5668 25.4274 36.1651 22.8643 36.1651 19.4337C36.1651 16.0031 34.9664 13.44 30.9706 11.8417Z" fill="white"/>
</svg>
