<svg width="108" height="101" viewBox="0 0 108 101" fill="none" xmlns="http://www.w3.org/2000/svg">
<path d="M45.1076 88.875H5.52092C2.47043 88.875 0 91.2541 0 94.1903V100.125H50.625V94.1903C50.625 91.2541 48.1548 88.875 45.1076 88.875Z" fill="black"/>
<path d="M42.75 81.9668C42.75 78.9469 40.2918 76.5 37.258 76.5H13.367C10.3334 76.5 7.875 78.9469 7.875 81.9668V85.5H42.75V81.9668Z" fill="black"/>
<path d="M27.589 61.8845C38.2377 71.5049 42.9487 73.7009 46.1346 70.8273C49.3207 67.9537 44.9777 65.521 48.375 61.4887L25.1426 40.5C21.7474 44.5322 18.8299 40.4079 16.5145 44.0677C14.1976 47.7276 16.9403 52.2657 27.589 61.8845Z" fill="black"/>
<path d="M74.9817 31.5C78.3789 27.4661 81.2943 31.594 83.6113 27.9323C85.9267 24.2722 83.1839 19.7358 72.5354 10.1153C61.8852 0.496455 57.1762 -1.70124 53.9885 1.17257C50.8024 4.04444 55.147 6.47716 51.75 10.5111L74.9817 31.5Z" fill="black"/>
<path d="M73.125 33.1689L49.1842 12.375L27 37.7078L50.9408 58.5L73.125 33.1689Z" fill="black"/>
<path d="M105.207 73.2348C103.056 71.328 100.197 70.7774 97.6386 71.5059C99.1835 67.1434 94.2304 65.3858 88.5365 60.9117C81.4221 55.3223 69.4625 45.4438 67.6927 43.875L60.75 51.9616C62.5198 53.5249 73.7851 64.2182 80.2033 70.6135C85.3426 75.7336 87.7324 80.4774 91.7768 78.3311C91.4137 81.0026 92.3419 83.8054 94.4925 85.7108C97.885 88.7168 103.033 88.357 105.993 84.9119C108.95 81.4671 108.599 76.2393 105.207 73.2348Z" fill="black"/>
</svg>
